<svg width="37" height="28" viewBox="0 0 37 28" fill="none" xmlns="http://www.w3.org/2000/svg">
<path d="M30.2596 1.56757L29.8251 4.09406L29.6367 6.6466L29.5162 9.20434L28.9718 11.7256L28.7153 14.2677L28.731 16.8411L28.4431 19.451L25.9145 19.7323L23.4436 19.951L20.9622 20.0031L18.486 20.0917L16.0046 20.1073L13.5336 20.3105L11.0574 20.274L8.58127 20.4772L6.10509 20.5345L3.62367 20.4042L1.20508 20.3313L1.43019 17.8569L1.671 15.32L2.0898 12.8091L2.86983 10.3764L3.15252 7.83952L3.86449 5.39117L4.23094 2.95845L6.72282 2.50003L9.33512 2.36459L11.9369 2.16143L14.5388 1.94264L17.1301 1.63009L19.7529 1.71343L22.3547 1.48423L24.967 1.52069L27.574 1.43734L30.1811 1.17688L30.2596 1.56757Z" fill="#C8E3FA"/>
<path d="M6.10479 21.3002C6.09432 21.3002 6.08385 21.1699 6.07338 21.1699C5.65981 21.1491 5.65457 21.2845 5.241 21.2637C4.82743 21.2429 4.82743 21.2429 4.41386 21.222C4.0003 21.2012 4.0003 21.2533 3.58673 21.2377C3.18363 21.222 3.18886 21.1699 2.78576 21.1595C2.38266 21.1491 2.3879 21.1022 1.9848 21.0918C1.5817 21.0814 1.58694 20.9251 1.18907 20.9095C0.995375 20.9043 0.801678 20.9459 0.670802 20.8053C0.539925 20.6594 0.508515 20.4667 0.52422 20.2739C0.555631 19.9145 0.498045 19.9093 0.53469 19.5551C0.566101 19.1904 0.696977 19.206 0.728387 18.8466C0.759798 18.4872 0.707447 18.482 0.738857 18.1277C0.770268 17.7683 0.806913 17.7735 0.843559 17.4141C0.874969 17.0546 0.890674 17.0546 0.922084 16.7004C0.953495 16.341 0.995375 16.3462 1.02679 15.9867C1.0582 15.6273 0.880204 15.6117 0.927319 15.2522C0.984905 14.8251 1.03726 14.8303 1.11055 14.4083C1.1786 13.9812 1.29901 14.002 1.36706 13.5748C1.43512 13.1477 1.42988 13.1477 1.50318 12.7205C1.50841 12.6893 1.42988 12.6424 1.44035 12.6111C1.566 12.2152 1.53459 12.2048 1.66023 11.8089C1.78587 11.413 1.75446 11.4026 1.8801 11.0067C2.00574 10.6108 2.13138 10.642 2.21514 10.2357C2.30414 9.82939 2.25179 9.81897 2.2989 9.40744C2.34602 8.99591 2.20991 8.98028 2.25702 8.56875C2.30414 8.15722 2.45072 8.17285 2.4926 7.76132C2.50831 7.73006 2.51354 7.6988 2.52401 7.65713C2.63918 7.25602 2.67059 7.26644 2.78576 6.86532C2.90093 6.46421 2.69677 6.40691 2.81194 6.0058C2.92711 5.60468 3.16269 5.6672 3.25168 5.25566C3.34068 4.86497 3.26215 4.84934 3.31974 4.44823C3.37732 4.05233 3.47156 4.06275 3.52914 3.66684C3.58673 3.27094 3.4925 3.25531 3.55008 2.85941C3.59196 2.56248 3.81707 2.4062 4.11547 2.35411C4.52904 2.27597 4.53427 2.30202 4.95308 2.22909C5.36664 2.15095 5.36141 2.11969 5.78021 2.04156C6.19378 1.96342 6.16761 1.81756 6.58641 1.73942C6.61782 1.73421 6.65447 1.71858 6.68588 1.71858C7.12039 1.69774 7.13086 1.85923 7.56537 1.83839C7.99988 1.81756 7.99464 1.74984 8.43439 1.72379C8.86889 1.70295 8.8689 1.72379 9.3034 1.69254C9.67509 1.66649 9.66462 1.55189 10.0311 1.52063C10.4028 1.48937 10.408 1.57793 10.7797 1.55189C11.1409 1.51542 11.1461 1.52063 11.5126 1.49458C11.8843 1.46333 11.8791 1.45291 12.2507 1.42165C12.6224 1.3904 12.6277 1.48937 12.9994 1.45812C13.371 1.42686 13.371 1.43728 13.7427 1.40603C14.1144 1.37477 14.0935 1.16119 14.4652 1.12473C14.8944 1.08305 14.8944 1.1091 15.3237 1.05701C15.753 1.00491 15.7739 1.19245 16.2032 1.14035C16.6325 1.08826 16.6063 0.869474 17.0356 0.817381C17.0722 0.812172 17.1246 0.817381 17.1612 0.817381C17.5905 0.833009 17.5853 0.926775 18.0145 0.942403C18.4438 0.958031 18.449 0.853846 18.8783 0.864264C19.3076 0.874683 19.3024 1.04659 19.7316 1.03096C20.1609 1.02054 20.1452 0.869474 20.5745 0.8278C21.0037 0.791335 21.009 0.859055 21.433 0.82259C21.8571 0.786126 21.8571 0.739242 22.2811 0.702778C22.3073 0.702778 22.3387 0.905938 22.3596 0.905938C22.7941 0.911148 22.7941 0.900729 23.2286 0.905938C23.6632 0.911148 23.6632 0.900729 24.0977 0.905938C24.5322 0.911148 24.5322 0.833009 24.9719 0.8278C25.4012 0.82259 25.396 0.734033 25.8252 0.718405C26.2545 0.702778 26.2597 0.791335 26.689 0.780916C27.1183 0.770498 27.1183 0.75487 27.5476 0.728824C27.9768 0.702778 27.9768 0.734033 28.4061 0.68715C28.8354 0.645476 28.8197 0.489198 29.2437 0.447524C29.673 0.40585 29.6887 0.551709 30.1127 0.504826C30.4687 0.463152 30.8195 0.681941 30.8928 1.03617C30.9294 1.22891 30.7933 1.26017 30.8299 1.45291C30.8456 1.53626 31.0393 1.6144 31.0236 1.69774C30.9504 2.11449 30.987 2.11969 30.9189 2.53643C30.8456 2.95317 30.652 2.91671 30.5787 3.33345C30.5054 3.75019 30.474 3.75019 30.4216 4.16693C30.3745 4.58367 30.5682 4.60451 30.5368 5.02125C30.5054 5.4432 30.385 5.43278 30.3536 5.85473C30.3221 6.27668 30.4478 6.28189 30.4216 6.70384C30.3954 7.12579 30.3117 7.12058 30.2907 7.54253C30.2698 7.96448 30.2803 7.96448 30.2646 8.39163C30.2436 8.81358 30.3431 8.81879 30.3221 9.24595C30.3221 9.28242 30.1494 9.30325 30.1389 9.33972C30.0499 9.75125 30.0761 9.75646 29.9871 10.1732C29.8981 10.5847 29.8405 10.5743 29.7515 10.9858C29.6625 11.3974 29.8458 11.4338 29.7829 11.8506C29.7201 12.2569 29.7463 12.2569 29.7044 12.6684C29.6625 13.08 29.5002 13.0643 29.4584 13.4759C29.4165 13.8874 29.4898 13.8926 29.4688 14.3041C29.4479 14.7261 29.5421 14.7209 29.5474 15.148C29.5526 15.57 29.317 15.57 29.3223 15.9971C29.3275 16.4191 29.5474 16.4191 29.5474 16.841C29.5474 16.8671 29.4688 16.8983 29.4688 16.9296C29.4217 17.362 29.2856 17.3463 29.2385 17.7839C29.1914 18.2163 29.3694 18.2371 29.317 18.6747C29.2647 19.1123 29.1338 19.0967 29.0867 19.529C29.05 19.8572 28.8406 20.0708 28.5108 20.1072C28.092 20.1541 28.1077 20.326 27.6889 20.3729C27.2649 20.4198 27.2649 20.4094 26.8461 20.4563C26.422 20.5031 26.4116 20.3677 25.9875 20.4094C25.574 20.4511 25.5897 20.5865 25.1761 20.623C24.7625 20.6594 24.752 20.5709 24.3385 20.6073C23.9249 20.6438 23.9301 20.748 23.5166 20.7688C23.0978 20.7897 23.0925 20.7219 22.6685 20.7271C22.2445 20.7376 22.2497 20.8053 21.8257 20.8157C21.4016 20.8261 21.4068 20.8313 20.9828 20.8417C20.5745 20.8522 20.5692 20.7897 20.1609 20.8053C19.7526 20.8209 19.7526 20.8782 19.339 20.8938C18.9307 20.9095 18.9202 20.7324 18.5119 20.7376C18.0983 20.748 18.0983 20.7011 17.69 20.7063C17.2764 20.7063 17.2764 20.7271 16.8628 20.7271C16.4493 20.7271 16.444 20.7115 16.0357 20.7271C15.6273 20.7428 15.6378 20.9355 15.2347 20.9668C14.8264 20.998 14.8264 21.0084 14.4181 21.0449C14.0097 21.0762 14.0045 21.0241 13.5961 21.0605C13.5752 21.0605 13.5438 21.1178 13.5229 21.1126C13.1145 21.1022 13.1145 21.0918 12.7114 21.0866C12.3031 21.0814 12.3083 20.8834 11.9 20.8782C11.4917 20.873 11.4864 20.9095 11.0833 20.9199C10.675 20.9355 10.6802 21.0084 10.2719 21.0449C9.86355 21.0814 9.85832 21.0241 9.45522 21.0553C9.04689 21.0918 9.05212 21.1543 8.64379 21.1751C8.22498 21.196 8.22498 21.1283 7.80094 21.1335C7.38214 21.1439 7.38214 21.2272 6.96334 21.2377C6.54453 21.2481 6.54453 21.2533 6.12049 21.2585C6.11526 21.2533 6.11002 21.3002 6.10479 21.3002ZM2.01621 19.6072C2.31984 19.8937 2.3879 19.7322 2.8067 19.7478C3.22551 19.7634 3.23074 19.6228 3.64955 19.6384C4.05788 19.654 4.06312 19.6592 4.47145 19.6801C4.88502 19.7009 4.88502 19.6436 5.29859 19.6645C5.71216 19.6853 5.70169 19.753 6.11526 19.7582C6.52359 19.7634 6.52359 19.7947 6.93193 19.7843C7.34026 19.7739 7.34549 19.9301 7.75383 19.9197C8.16216 19.9093 8.16216 19.7895 8.5705 19.7686C8.9736 19.7478 8.97883 19.7634 9.38193 19.7322C9.78503 19.6957 9.78503 19.6384 10.1881 19.6072C10.5912 19.5707 10.6069 19.7009 11.01 19.6697C11.031 19.6697 11.0467 19.6124 11.0729 19.6124C11.4812 19.6176 11.4812 19.654 11.8843 19.6593C12.2926 19.6645 12.2926 19.6749 12.701 19.6853C13.1093 19.6905 13.1145 19.7478 13.5229 19.7374C13.9312 19.7218 13.9207 19.5394 14.3291 19.5082C14.7374 19.4769 14.7374 19.5186 15.1457 19.4821C15.5541 19.4509 15.5645 19.5655 15.9676 19.5342C15.9833 19.5342 15.9938 19.5238 16.0095 19.5238C16.4231 19.5186 16.4231 19.4353 16.8366 19.4353C17.2502 19.4353 17.2502 19.3988 17.6638 19.3936C18.0774 19.3936 18.0774 19.3623 18.4909 19.3571C18.8993 19.3467 18.9045 19.4248 19.3128 19.4144C19.7212 19.3988 19.7212 19.3884 20.1295 19.3727C20.5378 19.3571 20.5326 19.2217 20.9462 19.2113C21.3597 19.2008 21.365 19.3467 21.7785 19.3415C22.1921 19.3311 22.1921 19.3311 22.6109 19.3206C23.0245 19.3102 23.0297 19.3571 23.4485 19.3363C23.8516 19.3154 23.8359 19.0862 24.239 19.0498C24.6421 19.0133 24.6631 19.2217 25.0662 19.1852C25.4692 19.1487 25.464 19.0966 25.8671 19.0602C26.1917 19.0289 26.2022 19.1123 26.5267 19.0758C26.8513 19.0393 26.8408 18.9404 27.1654 18.9039C27.49 18.8674 27.647 19.1019 27.8774 18.8674C28.113 18.6278 27.9664 18.4872 28.003 18.1538C28.0397 17.8204 28.003 17.8152 28.0449 17.4818C28.0815 17.1484 27.9507 17.138 27.9664 16.7994C27.9873 16.3774 27.9507 16.3826 27.9507 15.9607C27.9454 15.5387 28.113 15.5387 28.1077 15.1168C28.1025 14.6948 28.0397 14.6948 28.0344 14.2729C28.0344 14.2468 28.0501 14.226 28.0554 14.2C28.0972 13.778 27.9873 13.7624 28.0292 13.3404C28.0711 12.9133 28.1601 12.9237 28.2072 12.5017C28.2491 12.0746 28.2543 12.0798 28.2962 11.6526C28.3014 11.6266 28.2909 11.6005 28.2962 11.5745C28.3852 11.163 28.4794 11.1838 28.5684 10.7775C28.6574 10.3659 28.6679 10.3712 28.7569 9.95962C28.8459 9.54809 28.6626 9.51683 28.715 9.10009C28.7673 8.68856 28.7673 8.69377 28.7883 8.27703C28.8092 7.86029 28.9977 7.87071 29.0134 7.45397C29.0343 7.03723 28.804 7.02681 28.8302 6.61007C28.8563 6.18291 28.8668 6.18291 28.8982 5.75054C28.9296 5.32338 29.0238 5.32859 29.0553 4.90144C29.0867 4.47428 28.982 4.46386 29.0134 4.0367C29.0134 4.01586 29.16 4.00544 29.16 3.9794C29.2175 3.6408 29.0919 3.61996 29.1495 3.28657C29.2071 2.94797 29.2751 2.96359 29.338 2.62499C29.3955 2.28639 29.7201 2.22909 29.4427 2.02593C29.071 1.75505 29.0239 1.88007 28.5632 1.92695C28.1025 1.97384 28.1077 1.99467 27.647 2.03114C27.3172 2.05718 27.3225 2.05718 26.9874 2.0676C26.6576 2.07802 26.6576 2.17179 26.3278 2.18221C25.9928 2.19262 25.998 2.27597 25.6629 2.28639C25.3279 2.29681 25.3279 2.21867 24.9929 2.21867C24.5584 2.22388 24.5584 2.23951 24.1238 2.22909C23.6893 2.22388 23.6893 2.177 23.2548 2.17179C22.8203 2.16658 22.8255 2.30202 22.391 2.31765C21.9618 2.33327 21.9565 2.20825 21.5325 2.24993C21.1032 2.28639 21.1084 2.33327 20.6792 2.36974C20.2499 2.4062 20.2394 2.26555 19.8102 2.30202C19.784 2.30723 19.763 2.49997 19.7316 2.49997C19.3024 2.48434 19.3024 2.52602 18.8783 2.51039C18.449 2.49476 18.4595 2.30202 18.0302 2.28639C17.601 2.27076 17.5957 2.22909 17.1665 2.24472C16.7319 2.25513 16.7477 2.45309 16.3236 2.50518C15.8996 2.55727 15.8839 2.43746 15.4598 2.48955C15.0358 2.54164 15.0515 2.67708 14.6275 2.71876C14.2558 2.75522 14.2453 2.66146 13.8736 2.6875C13.5019 2.71876 13.5019 2.72918 13.1302 2.76043C12.7585 2.79169 12.7638 2.88545 12.3921 2.91671C12.0204 2.94797 12.0047 2.77606 11.633 2.80732C11.2613 2.83857 11.2613 2.86462 10.8896 2.89587C10.5127 2.92713 10.5127 2.86983 10.1358 2.90108C9.75885 2.93234 9.77456 3.14592 9.40287 3.17196C8.9736 3.19801 8.9736 3.19801 8.54432 3.22406C8.11505 3.24489 8.10458 3.08341 7.6753 3.10945C7.24603 3.1355 7.25126 3.20322 6.82199 3.2501C6.49218 3.28657 6.51312 3.38033 6.18855 3.43764C5.86397 3.49494 5.82209 3.27094 5.49229 3.32824C5.15724 3.39075 5.16248 3.39596 4.93214 3.63559C4.70179 3.87 4.8379 3.88563 4.79079 4.2086C4.74367 4.53158 4.60756 4.51074 4.56045 4.83371C4.51333 5.15669 4.69132 5.18273 4.64421 5.50571C4.63897 5.53696 4.50286 5.54217 4.49239 5.57343C4.37722 5.96933 4.37722 5.97454 4.26205 6.37044C4.14688 6.77156 4.30916 6.81844 4.19399 7.21434C4.07882 7.61546 4.03694 7.59462 3.95842 8.00094C3.87465 8.40726 3.76995 8.38643 3.72284 8.79796C3.67572 9.20949 3.81707 9.22511 3.76995 9.63665C3.72284 10.0482 3.63384 10.0378 3.58673 10.4545C3.58149 10.5014 3.65478 10.5743 3.63908 10.6212C3.51344 11.0171 3.45585 11.0015 3.33021 11.3974C3.20457 11.7933 3.26739 11.8193 3.14175 12.2152C3.01611 12.6111 2.99517 12.6007 2.90093 13.007C2.80147 13.4081 2.76482 13.3977 2.69677 13.804C2.62871 14.2156 2.6863 14.226 2.61824 14.6323C2.55019 15.0439 2.35125 15.0126 2.2989 15.4241C2.25179 15.7731 2.23085 15.7731 2.1942 16.1274C2.16279 16.4764 2.1785 16.4816 2.14709 16.8306C2.11568 17.1796 2.11044 17.1796 2.07903 17.5339C2.04762 17.8829 2.22038 17.9037 2.18897 18.2528C2.15756 18.607 2.23085 18.6382 2.12615 18.9768C2.02668 19.3206 1.75969 19.3623 2.01621 19.6072Z" fill="#023866"/>
<path d="M32.8349 4.76622L32.4266 7.29792L32.2539 9.85045L32.0706 12.403L31.8926 14.9555L31.5052 17.4924L31.2435 20.0345L30.9451 22.4777L28.5788 22.7121L26.1288 23.1132L23.637 23.0507L21.1765 23.3737L18.6951 23.3112L16.2189 23.457L13.7479 23.7018L11.2718 23.8164L8.79033 23.7644L6.31415 23.6498L3.82227 23.6029L4.17301 21.0712L4.38242 18.5343L4.86928 16.039L5.32473 13.5386L5.90058 11.0642L6.44503 8.5846L6.86907 6.12063L9.43948 5.95914L12.0099 5.46426L14.6222 5.34445L17.2135 5.01627L19.8363 5.08399L22.4329 4.85478L25.0399 4.68809L27.647 4.56827L30.2541 4.36511L32.8664 4.45888L32.8349 4.76622Z" fill="#C8E3FA"/>
<path d="M11.3035 24.6133C10.8847 24.6185 10.8847 24.3945 10.4606 24.384C10.0366 24.3736 10.0366 24.3788 9.61777 24.3736C9.19373 24.3632 9.19897 24.3788 8.77493 24.3632C8.36136 24.3476 8.35089 24.556 7.93732 24.5351C7.52375 24.5143 7.51852 24.5351 7.10495 24.5143C6.69138 24.4934 6.69661 24.2851 6.28304 24.2694C5.86947 24.2538 5.86424 24.4674 5.45591 24.4622C5.04234 24.4518 5.04757 24.3372 4.634 24.3267C4.22043 24.3163 4.22043 24.2434 3.8121 24.2382C3.61317 24.233 3.44041 24.1913 3.30953 24.0402C3.17866 23.8892 3.21007 23.7173 3.23624 23.5193C3.29383 23.0974 3.2153 23.0869 3.27289 22.665C3.33047 22.243 3.31477 22.243 3.37235 21.8211C3.42994 21.3991 3.32 21.3887 3.36712 20.9616C3.41423 20.5448 3.5137 20.5552 3.55035 20.1437C3.58699 19.727 3.53464 19.7218 3.56605 19.305C3.6027 18.8883 3.56605 18.8831 3.59746 18.4663C3.59746 18.4403 3.76498 18.4403 3.77022 18.4142C3.84874 17.9975 3.7074 17.9715 3.79116 17.5547C3.86968 17.138 3.83827 17.1328 3.92203 16.716C4.00056 16.2993 4.14191 16.3253 4.22043 15.9086C4.29896 15.4919 4.18902 15.4762 4.26231 15.0595C4.34084 14.6427 4.49266 14.674 4.57118 14.2573C4.64971 13.8405 4.54501 13.8249 4.62877 13.4082C4.71776 12.9862 4.81199 13.0122 4.91146 12.5903C5.01093 12.1736 4.93764 12.1579 5.0371 11.736C5.13657 11.3192 5.24127 11.3401 5.34073 10.9233C5.43497 10.5118 5.3355 10.491 5.42973 10.0794C5.51873 9.66791 5.53967 9.67312 5.62866 9.25638C5.71766 8.84485 5.60772 8.82401 5.69148 8.40727C5.77001 8.00616 5.92182 8.0322 5.98988 7.62588C6.05794 7.21956 6.00559 7.20914 6.07364 6.80803C6.1417 6.40171 6.00035 6.38087 6.06841 5.97455C6.12599 5.65157 6.50815 5.39111 6.83272 5.37028C7.25153 5.34423 7.25153 5.33381 7.67033 5.30776C8.08914 5.28172 8.09437 5.30255 8.51318 5.27651C8.93198 5.25046 8.93722 5.28693 9.35602 5.23483C9.78006 5.18274 9.76435 5.1046 10.1884 5.02646C10.6124 4.94312 10.6177 4.97437 11.0365 4.89623C11.4605 4.81289 11.4553 4.78684 11.8741 4.70349C11.9055 4.69828 11.9578 4.80247 11.9893 4.80247C12.4185 4.78163 12.4185 4.78684 12.8478 4.77121C13.2771 4.75037 13.2771 4.68265 13.7064 4.66182C14.1356 4.64098 14.1461 4.78684 14.5754 4.75037C15.0046 4.71391 15.0046 4.69307 15.4339 4.64098C15.8632 4.58889 15.8527 4.52117 16.282 4.46907C16.7113 4.41698 16.706 4.39094 17.1353 4.33884C17.172 4.33363 17.2034 4.25029 17.24 4.25029C17.6693 4.2607 17.6693 4.31801 18.0986 4.32842C18.5278 4.33884 18.5331 4.21903 18.9623 4.22945C19.3916 4.23987 19.3864 4.26591 19.8157 4.2555C20.2449 4.23987 20.2502 4.41177 20.6794 4.3701C21.1087 4.33363 21.1035 4.30238 21.5328 4.26591C21.962 4.22945 21.962 4.26591 22.3913 4.23466C22.8258 4.2034 22.8258 4.22945 23.2656 4.2034C23.7053 4.17736 23.7001 4.09401 24.1346 4.06796C24.5743 4.04192 24.5743 4.05233 25.0088 4.02629C25.4433 4.00024 25.4486 4.04712 25.8831 4.02629C26.3176 4.00545 26.3176 4.01066 26.7573 3.98982C27.1971 3.96899 27.1814 3.78666 27.6211 3.75541C28.0504 3.72936 28.0504 3.73457 28.4797 3.70331C28.9089 3.66685 28.9194 3.78666 29.3487 3.75541C29.778 3.71894 29.7675 3.5835 30.202 3.55225C30.2282 3.55225 30.2648 3.64601 30.291 3.64601C30.7255 3.66164 30.7307 3.57308 31.1653 3.58871C31.5998 3.60434 31.5998 3.66685 32.0343 3.68769C32.4688 3.70331 32.474 3.63038 32.9085 3.64601C33.1022 3.65122 33.2645 3.8648 33.3902 4.01066C33.5158 4.15652 33.7043 4.33884 33.6833 4.53159C33.6676 4.68265 33.6257 4.68265 33.6153 4.83372C33.6153 4.84935 33.4373 4.84414 33.4373 4.85977C33.3692 5.27651 33.3849 5.27651 33.3221 5.69325C33.254 6.10999 33.2907 6.1152 33.2226 6.53194C33.1546 6.94868 33.1284 6.94868 33.0813 7.36542C33.0342 7.74569 33.0603 7.7509 33.0342 8.13118C33.008 8.51145 33.0185 8.51145 32.9923 8.89173C32.9661 9.27201 32.9923 9.27722 32.9661 9.65749C32.9399 10.0378 32.9242 10.0378 32.8981 10.418C32.8719 10.7983 32.9871 10.8087 32.9609 11.189C32.9347 11.5693 32.8248 11.5641 32.7986 11.9444C32.7724 12.3246 32.8509 12.3298 32.8248 12.7101C32.7986 13.0904 32.8091 13.0956 32.7829 13.4759C32.7567 13.8561 32.6363 13.8509 32.6101 14.2312C32.584 14.6115 32.7358 14.6219 32.7044 15.0074C32.7044 15.0282 32.7358 15.0595 32.7305 15.0751C32.6677 15.4971 32.4845 15.471 32.4217 15.893C32.3588 16.3149 32.5264 16.341 32.4635 16.7629C32.4007 17.1849 32.2699 17.164 32.2175 17.5912C32.1651 18.0079 32.1442 18.0079 32.0971 18.4247C32.0552 18.8414 32.1861 18.857 32.1442 19.279C32.1023 19.6957 31.9086 19.6801 31.8615 20.0968C31.8144 20.5084 32.029 20.5292 31.9819 20.9407C31.9296 21.3523 31.694 21.321 31.6416 21.7325C31.5893 22.1441 31.7097 22.1545 31.6574 22.566C31.6155 22.8942 31.359 23.139 31.0344 23.1703C30.6418 23.2068 30.6522 23.337 30.2596 23.3735C29.867 23.4099 29.8617 23.3891 29.4691 23.4255C29.0765 23.462 29.0608 23.3318 28.6681 23.3839C28.265 23.436 28.2546 23.3839 27.8567 23.4464C27.4536 23.5141 27.4902 23.7121 27.0871 23.7798C26.684 23.8475 26.6474 23.6183 26.2443 23.686C26.2024 23.6912 26.1762 23.8214 26.1344 23.8214C25.7313 23.811 25.7313 23.7016 25.3282 23.6912C24.9198 23.6808 24.9198 23.811 24.5115 23.8006C24.1032 23.7902 24.1032 23.6964 23.7001 23.7173C23.297 23.7381 23.3022 23.8006 22.8991 23.8527C22.496 23.9048 22.4855 23.8006 22.0824 23.8527C21.6793 23.9048 21.7003 24.0454 21.2972 24.0975C21.2605 24.1027 21.2187 24.1705 21.182 24.1705C20.7737 24.16 20.7737 24.1496 20.3653 24.1444C19.957 24.134 19.9622 23.9465 19.5539 23.9361C19.1456 23.9256 19.1403 23.8944 18.732 23.8996C18.3237 23.9048 18.3184 23.9204 17.9153 23.9465C17.507 23.9725 17.5175 24.16 17.1091 24.1861C16.7008 24.2121 16.6956 24.0975 16.2872 24.134C15.8789 24.1653 15.8789 24.1861 15.4758 24.2278C15.0675 24.2694 15.0675 24.259 14.6591 24.3007C14.2508 24.3424 14.2613 24.4361 13.8529 24.4674C13.4341 24.4986 13.4289 24.358 13.0101 24.3788C12.5913 24.3997 12.5756 24.3059 12.1568 24.3632C11.7013 24.4101 11.7275 24.608 11.3035 24.6133ZM4.70206 22.8577C4.96905 23.1911 5.04757 23.0401 5.47161 23.0505C5.89565 23.0609 5.89565 23.0453 6.31969 23.0609C6.73326 23.0765 6.73326 23.0713 7.15206 23.0922C7.57087 23.113 7.5761 22.8994 7.99491 22.9202C8.41371 22.9411 8.40848 22.9255 8.82728 22.9411C9.23561 22.9567 9.23038 23.1547 9.63871 23.1651C10.047 23.1755 10.0523 22.9671 10.4659 22.9723C10.8742 22.9828 10.8742 23.113 11.2825 23.1078C11.6856 23.1026 11.6909 23.1651 12.094 23.1442C12.4971 23.1234 12.4971 23.0869 12.9002 23.0661C13.3033 23.0453 13.3137 23.1442 13.7168 23.113C14.1252 23.0817 14.1147 22.9932 14.523 22.9515C14.9314 22.9098 14.9261 22.8942 15.3345 22.8525C15.7428 22.8109 15.7271 22.6806 16.1354 22.6494C16.549 22.6181 16.5595 22.7379 16.9783 22.7119C17.3971 22.6858 17.3918 22.6337 17.8106 22.6077C18.2294 22.5816 18.2242 22.5452 18.643 22.5191C18.6639 22.5191 18.6849 22.6806 18.7058 22.6806C19.1089 22.691 19.1142 22.5452 19.5173 22.5556C19.9204 22.566 19.9256 22.5348 20.3287 22.54C20.7318 22.5504 20.7318 22.7171 21.1401 22.6962C21.5432 22.6754 21.5275 22.5348 21.9306 22.4827C22.3337 22.4306 22.3547 22.5869 22.7525 22.5348C23.1504 22.4827 23.1399 22.3889 23.543 22.3368C23.5797 22.3316 23.6163 22.4202 23.653 22.4202C24.0561 22.4306 24.0561 22.3576 24.4592 22.3681C24.8622 22.3785 24.8623 22.4879 25.2654 22.4983C25.6684 22.5087 25.6737 22.4514 26.0768 22.4254C26.4799 22.3993 26.4799 22.3785 26.8777 22.3108C27.2756 22.243 27.2547 22.1232 27.6525 22.0607C28.0504 21.993 28.0713 22.1441 28.4744 22.092C28.9351 22.0347 28.9299 21.993 29.3906 21.9461C29.8513 21.8992 29.867 22.0034 30.2387 21.7325C30.4952 21.545 30.3015 21.5085 30.3381 21.196C30.3748 20.8834 30.3695 20.8782 30.4062 20.5657C30.4428 20.2531 30.469 20.2531 30.5056 19.9406C30.5528 19.5186 30.558 19.5186 30.6051 19.0967C30.647 18.6747 30.5999 18.6695 30.6418 18.2475C30.6836 17.8256 30.7046 17.8256 30.7569 17.4036C30.8093 16.9817 30.7936 16.9765 30.8564 16.5545C30.9192 16.1326 31.0344 16.1482 31.0972 15.7263C31.16 15.3043 31.181 15.3043 31.2333 14.8772C31.2752 14.4969 31.1914 14.4917 31.2176 14.1114C31.2438 13.7311 31.3747 13.7415 31.4008 13.3613C31.427 12.981 31.4218 12.981 31.4532 12.5955C31.4794 12.2152 31.4113 12.21 31.4375 11.8297C31.4637 11.4495 31.4427 11.4443 31.4689 11.064C31.4951 10.6837 31.4113 10.6785 31.4375 10.293C31.4637 9.91274 31.5212 9.91795 31.5474 9.53247C31.5736 9.15219 31.4532 9.14177 31.4794 8.7615C31.5055 8.37601 31.5055 8.38122 31.5369 7.99574C31.5631 7.61025 31.7568 7.62588 31.783 7.24561C31.783 7.22477 31.7568 7.20393 31.7621 7.18309C31.8196 6.83928 31.8615 6.8497 31.9139 6.50589C31.9715 6.16208 31.9924 6.16729 32.0447 5.82348C32.1023 5.47967 32.3222 5.34423 32.0657 5.10981C31.7359 4.80768 31.605 5.07335 31.1548 5.05772C30.7046 5.04209 30.7046 4.97437 30.2544 4.97958C29.8408 4.99521 29.8356 5.01605 29.4063 5.05251C28.977 5.08377 28.9927 5.27651 28.5634 5.31297C28.1342 5.34944 28.1342 5.33902 27.7049 5.36507C27.2651 5.39111 27.2599 5.26609 26.8202 5.28693C26.3804 5.30776 26.3857 5.4432 25.9511 5.46404C25.5114 5.48488 25.5062 5.3859 25.0717 5.40674C24.6371 5.43279 24.6476 5.52134 24.2131 5.54739C23.7786 5.57344 23.7786 5.51092 23.3441 5.53697C22.9096 5.56302 22.9148 5.63074 22.4855 5.6672C22.0563 5.69846 22.0458 5.56823 21.6165 5.60469C21.1872 5.64116 21.1977 5.76618 20.7684 5.80785C20.3392 5.84432 20.3339 5.80264 19.9047 5.83911C19.8785 5.84432 19.8471 5.67241 19.8209 5.6672C19.3916 5.65678 19.3916 5.67241 18.9676 5.66199C18.5383 5.65157 18.5383 5.68804 18.109 5.67762C17.6798 5.6672 17.6745 5.62553 17.2505 5.64637C16.8264 5.6672 16.8212 5.70367 16.4024 5.75576C15.9784 5.80785 15.9784 5.81827 15.5543 5.87557C15.1303 5.92766 15.1355 5.95371 14.7115 6.0058C14.6905 6.0058 14.6748 5.99539 14.6539 5.99539C14.2299 6.01622 14.2351 6.13083 13.8058 6.14645C13.3818 6.16729 13.3765 6.0579 12.9473 6.07873C12.5232 6.09957 12.5232 6.14645 12.0992 6.19334C11.6751 6.24543 11.6856 6.2871 11.2616 6.36524C10.8428 6.44859 10.8166 6.32878 10.3978 6.41213C9.97899 6.49547 10.0052 6.64133 9.58636 6.71947C9.55495 6.72468 9.51831 6.76635 9.4869 6.76635C9.15185 6.78719 9.14138 6.60487 8.80634 6.62571C8.4713 6.64654 8.48177 6.81845 8.14672 6.83928C7.81168 6.86012 7.71221 6.54236 7.46093 6.76635C7.21488 6.97993 7.37193 7.08412 7.31435 7.40709C7.25676 7.72486 7.39288 7.7509 7.33529 8.06867C7.2777 8.38643 7.09448 8.35518 7.03166 8.67294C6.9479 9.09489 7.1573 9.13656 7.06307 9.55331C6.96884 9.97005 6.73849 9.92316 6.64426 10.3399C6.55003 10.7566 6.67044 10.7827 6.57621 11.2046C6.48198 11.6214 6.47674 11.6162 6.38251 12.0329C6.28828 12.4496 6.40868 12.4757 6.31445 12.8924C6.22022 13.3092 6.18358 13.2988 6.09982 13.7155C6.01606 14.1218 5.90612 14.101 5.83283 14.5125C5.75954 14.924 5.69148 14.9136 5.61296 15.3252C5.53967 15.7367 5.74383 15.7732 5.66531 16.1847C5.58678 16.5962 5.35644 16.5545 5.27791 16.9609C5.19939 17.3724 5.32503 17.3984 5.24127 17.81C5.16274 18.2215 5.03187 18.2007 4.97428 18.6174C4.91669 19.0289 5.06851 19.0498 5.03187 19.4665C4.99522 19.8833 4.9324 19.878 4.89575 20.2948C4.85911 20.7115 4.90622 20.7167 4.85911 21.1335C4.80676 21.5815 4.77535 21.5658 4.634 21.993C4.50836 22.4149 4.41936 22.5035 4.70206 22.8577Z" fill="#023866"/>
<path fill-rule="evenodd" clip-rule="evenodd" d="M35.2801 10.5223L35.6308 7.98542L35.5575 7.61035L35.0409 7.65474L32.9398 7.61035L30.3328 7.69891L27.731 8.01667L27.5625 8.02848L25.1241 8.04793L23.4028 8.11328L22.5064 8.06877L21.2046 8.17041L19.8995 8.19379L17.2977 8.41779L14.7011 8.66262L12.0992 8.90225L10.8434 9.15377L9.49204 9.2721L9.62601 9.41247L9.26709 11.8142L8.50277 14.2574L8.13108 16.7734L7.70181 19.2791L7.06313 21.7431L6.81708 24.28L6.42969 26.8846L9.00533 26.8533H11.4815L13.9577 26.8065L16.4339 26.6919L18.9153 26.8742L21.3862 26.6554L23.8676 26.645L26.3281 26.2491L28.8043 26.1657L31.2752 26.0042L33.7776 25.8323L34.1179 23.2642L34.3325 20.7168L34.6152 18.1695L34.699 15.6066L35.034 13.0697L35.2801 10.5223Z" fill="white"/>
<path fill-rule="evenodd" clip-rule="evenodd" d="M21 20.2865C21.0889 20.3341 21.1618 20.3731 21.2659 20.3731C21.3129 20.3731 21.3679 20.3874 21.4218 20.4014C21.506 20.4233 21.5877 20.4445 21.6324 20.4095C21.793 20.3186 21.8657 20.2714 21.9435 20.2209C22.0128 20.1759 22.0861 20.1283 22.2292 20.0449C22.3823 19.9582 22.4435 19.8914 22.5056 19.8238C22.5666 19.7573 22.6283 19.6899 22.7789 19.6021C22.9346 19.5139 23.0008 19.4545 23.0687 19.3937C23.1331 19.3359 23.1989 19.2768 23.3442 19.1906C23.4977 19.101 23.5843 19.0741 23.671 19.0471C23.7558 19.0207 23.8406 18.9943 23.9882 18.9093C24.0231 18.8884 24.0486 18.8583 24.0742 18.8282L24.0743 18.8282L24.0743 18.8282C24.0871 18.8132 24.0999 18.7981 24.1138 18.7843C24.2681 18.6281 24.3453 18.5512 24.4225 18.4745L24.4226 18.4744L24.4227 18.4743C24.4999 18.3975 24.5771 18.3206 24.7315 18.1643C24.886 18.0081 24.9566 17.9247 25.0273 17.8414C25.098 17.758 25.1687 17.6747 25.3231 17.5184C25.4969 17.3425 25.5845 17.2771 25.6858 17.2016C25.7644 17.143 25.8513 17.0781 25.9932 16.9506C26.1341 16.8217 26.2079 16.7419 26.2741 16.6703C26.3605 16.5769 26.434 16.4974 26.6266 16.3411C26.6465 16.325 26.6654 16.3101 26.6836 16.2964C26.7046 16.3466 26.7317 16.4037 26.768 16.4713C26.8743 16.6695 26.9409 16.7545 27.0107 16.8435C27.0748 16.9254 27.1416 17.0106 27.2444 17.1902C27.3455 17.3657 27.3606 17.476 27.3755 17.585C27.3906 17.6961 27.4057 17.8059 27.5113 17.982C27.6093 18.1453 27.6866 18.2174 27.76 18.2857C27.8434 18.3635 27.9216 18.4364 28.0191 18.6332C28.1557 18.9089 28.1847 18.9849 28.2535 19.1654C28.277 19.227 28.3051 19.3008 28.3437 19.3989C28.4196 19.5917 28.4537 19.6894 28.4877 19.787C28.5217 19.8847 28.5557 19.9824 28.6316 20.1751C28.6413 20.1968 28.6364 20.2286 28.6315 20.2606C28.6258 20.2977 28.62 20.3351 28.6369 20.3574C28.7605 20.5354 28.8564 20.6003 28.953 20.6657C29.0488 20.7305 29.1453 20.7959 29.2703 20.9721C29.3767 21.1222 29.4362 21.2096 29.4889 21.287C29.5606 21.3925 29.6198 21.4794 29.7677 21.6806C29.8859 21.8443 29.912 21.9515 29.9377 22.0571C29.9643 22.1665 29.9905 22.2741 30.1184 22.4411C30.2391 22.5987 30.3404 22.6542 30.4375 22.7074C30.5426 22.765 30.6428 22.8198 30.7571 22.9985C30.8703 23.1782 30.8669 23.2971 30.8634 23.4207C30.8602 23.5372 30.8568 23.6578 30.9508 23.8372C31.0498 24.0263 31.1051 24.1147 31.1613 24.2046C31.215 24.2905 31.2697 24.3779 31.3643 24.5561C31.3781 24.5808 31.4195 24.591 31.461 24.6013C31.4982 24.6105 31.5355 24.6197 31.5528 24.6394C31.6975 24.8047 31.7763 24.8786 31.8567 24.9539C31.9273 25.02 31.999 25.0872 32.1175 25.2183C32.099 25.2223 32.0812 25.2264 32.0634 25.2306C31.9731 25.2514 31.8828 25.2722 31.6995 25.2852C31.5089 25.2961 31.4188 25.3097 31.3247 25.324C31.2379 25.3372 31.1476 25.3509 30.9719 25.3634C30.7913 25.3764 30.701 25.3959 30.6107 25.4155L30.6106 25.4155C30.5203 25.435 30.43 25.4545 30.2494 25.4676L30.244 25.468L30.2398 25.4683L30.2329 25.4688C29.8881 25.4936 29.8825 25.494 29.5217 25.5197C29.3345 25.533 29.2416 25.5082 29.1465 25.4829C29.0556 25.4586 28.9628 25.4339 28.7836 25.4415C28.5789 25.4518 28.4768 25.4877 28.3758 25.5231C28.2727 25.5593 28.1706 25.5951 27.9617 25.603C27.7549 25.6108 27.6502 25.5848 27.5455 25.5587C27.4408 25.5327 27.3361 25.5066 27.1293 25.5145C26.9094 25.5201 26.808 25.5272 26.6965 25.535C26.6011 25.5417 26.4983 25.5489 26.3074 25.5561C26.2917 25.5587 26.2786 25.5665 26.2655 25.5744C26.2525 25.5822 26.2394 25.59 26.2237 25.5926C26.0217 25.6239 25.9144 25.6029 25.8076 25.5821C25.7011 25.5613 25.5951 25.5406 25.3965 25.5718C25.1995 25.6027 25.1013 25.626 25.0035 25.6492C24.9037 25.6729 24.8043 25.6965 24.6008 25.728C24.5139 25.7428 24.4462 25.7549 24.3894 25.765L24.3892 25.765C24.1857 25.8013 24.12 25.813 23.8051 25.8374C23.6183 25.8519 23.5192 25.882 23.4265 25.9102C23.3192 25.9429 23.2205 25.9729 23.0041 25.9729C22.7993 25.9729 22.6972 25.9807 22.5954 25.9886C22.4943 25.9964 22.3936 26.0041 22.1927 26.0041C21.9995 26.0066 21.8989 26.0151 21.8022 26.0233H21.8022H21.8021C21.697 26.0321 21.5964 26.0406 21.3865 26.0406C21.3809 26.042 21.376 26.0434 21.3715 26.0447C21.3592 26.0482 21.3495 26.051 21.3341 26.051C21.1326 26.0692 21.0279 26.0302 20.9232 25.9911C20.8185 25.952 20.7138 25.913 20.5122 25.9312C20.3107 25.9494 20.2125 25.982 20.1144 26.0145C20.0162 26.0471 19.918 26.0797 19.7165 26.0979C19.5363 26.1142 19.4366 26.1378 19.3455 26.1593C19.2328 26.186 19.1332 26.2096 18.9103 26.2125C18.6784 26.2155 18.5782 26.1949 18.461 26.1708C18.3719 26.1525 18.273 26.1322 18.0989 26.1187C17.8937 26.103 17.793 26.0781 17.6924 26.0533C17.5927 26.0286 17.4933 26.004 17.2927 25.9885C17.0911 25.9729 16.9916 25.9494 16.8922 25.926C16.7927 25.9025 16.6932 25.8791 16.4917 25.8635C16.4753 25.8635 16.456 25.872 16.4376 25.8802L16.4376 25.8802C16.4208 25.8876 16.4047 25.8947 16.3922 25.8947C16.1881 25.9051 16.086 25.9169 15.9839 25.9286C15.8818 25.9403 15.7797 25.952 15.5756 25.9625C15.3714 25.9729 15.268 25.9625 15.1646 25.952C15.0612 25.9416 14.9578 25.9312 14.7537 25.9416C14.5622 25.9514 14.4605 25.9611 14.3644 25.9704L14.3644 25.9704C14.2556 25.9808 14.1539 25.9906 13.937 25.9989C13.732 26.0067 13.6299 26.063 13.5293 26.1186C13.427 26.1751 13.3263 26.2307 13.1203 26.2333C12.8909 26.2392 12.7888 26.2385 12.6709 26.2376H12.6708H12.6707C12.5788 26.237 12.4773 26.2363 12.2984 26.2385C12.0943 26.2411 11.9909 26.1995 11.8875 26.1578C11.7841 26.1161 11.6807 26.0744 11.4765 26.0771C11.2697 26.0771 11.1663 26.0679 11.0629 26.0588C10.9596 26.0497 10.8562 26.0406 10.6494 26.0406C10.4426 26.0406 10.3392 26.0666 10.2358 26.0927C10.1324 26.1187 10.029 26.1448 9.82224 26.1448C9.6133 26.1448 9.50992 26.1767 9.40544 26.2089C9.30311 26.2405 9.19973 26.2724 8.9951 26.275C8.78592 26.2775 8.67744 26.2209 8.57212 26.162C8.6015 26.1236 8.62822 26.0923 8.65486 26.0611C8.71847 25.9866 8.78165 25.9127 8.87971 25.7439C8.98287 25.5663 9.04445 25.4922 9.11032 25.4129C9.16814 25.3433 9.22925 25.2697 9.32469 25.1188C9.42173 24.9663 9.44652 24.8733 9.47076 24.7824C9.49621 24.687 9.52106 24.5938 9.62832 24.4363C9.721 24.3003 9.75728 24.2112 9.79026 24.1302C9.83179 24.0282 9.8681 23.9391 10.0052 23.7852C10.1388 23.6297 10.2322 23.5893 10.335 23.5448C10.4215 23.5074 10.5147 23.4671 10.6439 23.3528C10.7853 23.2278 10.8415 23.1484 10.8978 23.0689C10.9541 22.9895 11.0104 22.91 11.1517 22.785C11.1732 22.766 11.2154 22.7633 11.2584 22.7604C11.3097 22.7571 11.3621 22.7537 11.3821 22.7225C11.4841 22.561 11.5038 22.4607 11.5234 22.3605C11.543 22.2602 11.5627 22.1599 11.6648 21.9984C11.7714 21.8296 11.8553 21.7718 11.9431 21.7112C12.0233 21.6559 12.107 21.5982 12.2144 21.4514C12.3148 21.3168 12.361 21.2349 12.4033 21.1601C12.4558 21.0671 12.5021 20.9851 12.6385 20.8263C12.7572 20.6881 12.8235 20.6202 12.888 20.5542L12.888 20.5542C12.9571 20.4834 13.0242 20.4147 13.1515 20.2637C13.1594 20.2559 13.1831 20.2572 13.2061 20.2585C13.2289 20.2598 13.251 20.2611 13.2562 20.2533C13.3661 20.097 13.4015 20.0046 13.4368 19.9121C13.4722 19.8196 13.5075 19.7272 13.6174 19.5709C13.725 19.418 13.7524 19.3199 13.7793 19.2237C13.8073 19.1232 13.8348 19.0246 13.9525 18.8677C14.0715 18.7098 14.1691 18.6609 14.2676 18.6115C14.3641 18.5632 14.4615 18.5144 14.5807 18.3624C14.7011 18.2087 14.7351 18.111 14.7691 18.0133C14.8032 17.9157 14.8372 17.818 14.9576 17.6643C14.9696 17.65 14.9859 17.6423 15.0021 17.6346C15.0214 17.6254 15.0405 17.6164 15.0518 17.5966C15.1461 17.4221 15.1775 17.327 15.2089 17.2319C15.2403 17.1369 15.2717 17.0418 15.3659 16.8673C15.459 16.6949 15.524 16.6178 15.5886 16.5419C15.7068 16.6623 15.7621 16.7386 15.8183 16.816C15.8804 16.9017 15.9435 16.9887 16.0937 17.1381C16.1043 17.1487 16.0988 17.1778 16.0935 17.206C16.0884 17.2337 16.0833 17.2606 16.0937 17.2684C16.2612 17.4012 16.3489 17.4637 16.4366 17.5262L16.4366 17.5262L16.4366 17.5262C16.5243 17.5887 16.612 17.6512 16.7795 17.7841C16.947 17.9169 17.0478 17.9612 17.1486 18.0055C17.2493 18.0497 17.3501 18.094 17.5176 18.2269C17.6852 18.3597 17.7755 18.4183 17.8658 18.4769C17.9561 18.5355 18.0464 18.5941 18.2139 18.7269C18.2292 18.7396 18.2371 18.7585 18.2447 18.777C18.2528 18.7964 18.2606 18.8152 18.2767 18.8259C18.4442 18.9197 18.5084 18.9991 18.5725 19.0786C18.6366 19.158 18.7007 19.2375 18.8683 19.3312C19.0332 19.425 19.138 19.4302 19.2434 19.4354C19.3487 19.4406 19.4547 19.4459 19.6221 19.5396C19.787 19.6308 19.8629 19.6907 19.9388 19.7506C20.0147 19.8105 20.0907 19.8704 20.2556 19.9615C20.4221 20.0522 20.5149 20.0823 20.6067 20.1121C20.6995 20.1422 20.7912 20.172 20.9571 20.2637C20.9656 20.2681 20.9739 20.2725 20.9821 20.2769C20.9882 20.2801 20.9941 20.2833 21 20.2865ZM33.2366 24.6222C33.2362 24.5854 33.2381 24.5446 33.2439 24.4986C33.2648 24.332 33.2857 24.2499 33.3067 24.1679L33.3067 24.1679C33.3276 24.0858 33.3486 24.0038 33.3695 23.8371C33.3907 23.6688 33.3651 23.5815 33.3393 23.4934C33.314 23.4069 33.2885 23.3198 33.3067 23.1547C33.3275 22.9476 33.3884 22.8472 33.4489 22.7476C33.5101 22.6467 33.5709 22.5465 33.5894 22.3368C33.6077 22.1254 33.5814 22.0173 33.5552 21.9096C33.5291 21.8024 33.503 21.6956 33.5213 21.4877C33.5396 21.2803 33.5669 21.1774 33.5942 21.0744C33.6218 20.9703 33.6495 20.8662 33.6679 20.6542C33.6881 20.4508 33.69 20.3442 33.6919 20.2411C33.6939 20.1303 33.6959 20.0236 33.7203 19.8051C33.7438 19.5941 33.7726 19.49 33.8014 19.3858C33.8302 19.2816 33.859 19.1774 33.8825 18.9664C33.904 18.7745 33.9276 18.6699 33.9494 18.5731L33.9494 18.5731C33.9756 18.4572 33.9992 18.3525 34.0134 18.1225C34.0294 17.9077 33.9803 17.7996 33.9302 17.6895C33.882 17.5833 33.833 17.4753 33.8407 17.2682C33.8485 17.0572 33.8786 16.9517 33.9087 16.8463C33.9388 16.7408 33.9689 16.6353 33.9768 16.4243C33.9846 16.2133 33.9899 16.1079 33.9951 16.0024C34.0003 15.8969 34.0056 15.7914 34.0134 15.5804C34.0134 15.57 34.0095 15.5583 34.0056 15.5466C34.0016 15.5348 33.9977 15.5231 33.9977 15.5127C34.0265 15.3018 34.0435 15.1963 34.0605 15.0909L34.0605 15.0908L34.0605 15.0908C34.0776 14.9853 34.0946 14.8798 34.1234 14.6688C34.1515 14.4625 34.1834 14.3596 34.2148 14.2584C34.2476 14.1525 34.2798 14.0485 34.3066 13.8301C34.3389 13.5936 34.3465 13.488 34.3552 13.3666C34.3621 13.2714 34.3696 13.1664 34.3903 12.981C34.4077 12.8277 34.4193 12.7301 34.4293 12.6472L34.4293 12.6471L34.4293 12.6469C34.4463 12.5046 34.4581 12.4056 34.4846 12.1423C34.5056 11.9309 34.4766 11.8214 34.4477 11.7125C34.419 11.604 34.3904 11.4959 34.4113 11.288C34.4358 11.0441 34.4513 10.9412 34.4705 10.8142L34.4705 10.8141L34.4706 10.8139C34.4841 10.724 34.4995 10.6219 34.5212 10.4493C34.5414 10.2811 34.5434 10.1928 34.5452 10.1079C34.5472 10.0167 34.5492 9.92941 34.5736 9.75126C34.5971 9.57675 34.6312 9.4934 34.6652 9.41005C34.6713 9.39517 34.6773 9.38028 34.6834 9.36487C34.6718 9.37544 34.6596 9.3862 34.6467 9.39718C34.4878 9.53237 34.3891 9.58013 34.2929 9.62669C34.1926 9.67522 34.0951 9.72245 33.9348 9.86601C33.7658 10.0203 33.7009 10.109 33.6315 10.2039C33.5697 10.2883 33.5044 10.3776 33.3589 10.5224C33.2019 10.6761 33.1129 10.7412 33.0239 10.8063C32.9349 10.8714 32.8459 10.9365 32.6888 11.0902C32.5318 11.2438 32.448 11.3142 32.3643 11.3845L32.3642 11.3845C32.2805 11.4548 32.1967 11.5252 32.0397 11.6788C32.0262 11.6922 31.9975 11.6836 31.9686 11.6749C31.9412 11.6666 31.9136 11.6583 31.8983 11.6684C31.7243 11.7925 31.6572 11.8845 31.5903 11.9762C31.5224 12.0694 31.4547 12.1623 31.2754 12.2883C31.0987 12.4142 30.9991 12.4609 30.8982 12.5081C30.7988 12.5547 30.6982 12.6018 30.5215 12.7259C30.3156 12.8727 30.245 12.9512 30.1562 13.0501C30.0937 13.1196 30.0221 13.1993 29.8881 13.3197C29.5891 13.5885 29.5744 13.6052 29.3488 13.8628L29.286 13.9344C29.1444 14.0933 29.061 14.164 28.9786 14.2338C28.8934 14.3059 28.8093 14.3772 28.6631 14.5439C28.5225 14.7016 28.4431 14.7761 28.3651 14.8492L28.3651 14.8492L28.365 14.8493C28.2833 14.9259 28.2031 15.0011 28.0558 15.169C28.0419 15.1828 28.0208 15.1835 28 15.1841C27.9816 15.1847 27.9634 15.1853 27.9511 15.1951C27.8551 15.273 27.7949 15.3393 27.7503 15.4005C27.7528 15.4156 27.755 15.4306 27.7572 15.4455C27.7734 15.5552 27.7897 15.6656 27.8883 15.8514C27.9619 15.9868 28.0077 16.074 28.0461 16.1472C28.1142 16.2771 28.1594 16.3633 28.2966 16.5964C28.4012 16.7831 28.47 16.8647 28.5405 16.9481C28.6076 17.0275 28.6761 17.1086 28.7782 17.284C28.8845 17.462 28.9266 17.5582 28.9681 17.653C29.0104 17.7497 29.052 17.8449 29.1604 18.0237C29.1699 18.0379 29.1869 18.0456 29.2036 18.0532C29.2238 18.0624 29.2437 18.0715 29.2494 18.0914C29.3253 18.2816 29.3855 18.3675 29.4457 18.4535C29.5059 18.5394 29.5661 18.6254 29.642 18.8155C29.7135 18.9945 29.7119 19.1077 29.7103 19.2149C29.7086 19.3354 29.707 19.4483 29.8095 19.6386C29.9545 19.9075 30.0027 19.9752 30.1143 20.1319C30.1518 20.1847 30.1965 20.2475 30.2545 20.3314C30.3718 20.5012 30.4606 20.5629 30.5514 20.6259C30.6387 20.6866 30.7279 20.7486 30.8461 20.9096C30.9759 21.0882 31.0445 21.1668 31.1172 21.2502C31.1824 21.3248 31.2508 21.4032 31.3696 21.5608C31.4952 21.7275 31.5672 21.8043 31.6392 21.8812C31.7112 21.958 31.7831 22.0348 31.9088 22.2015C31.922 22.2173 31.8913 22.2594 31.8603 22.3021C31.8298 22.3441 31.7989 22.3866 31.8093 22.4047C31.9024 22.5822 31.9636 22.6645 32.0244 22.7462C32.0866 22.8299 32.1485 22.913 32.2438 23.0975C32.3621 23.3264 32.4206 23.4013 32.5047 23.5091C32.5546 23.5731 32.6135 23.6486 32.6993 23.7747C32.8031 23.925 32.8421 24.0223 32.878 24.1121C32.9217 24.2215 32.961 24.3196 33.1076 24.4884C33.1559 24.5439 33.1981 24.587 33.2366 24.6222ZM7.28302 25.7126C7.22998 25.8015 7.19517 25.8971 7.179 25.9932C7.11334 25.8507 7.15687 25.7508 7.21572 25.6157C7.25732 25.5201 7.3066 25.407 7.33035 25.2488C7.36326 25.0297 7.40105 24.9189 7.43783 24.8112C7.47712 24.6961 7.51525 24.5844 7.54499 24.3476C7.57723 24.0942 7.58366 23.9948 7.5924 23.8598C7.59785 23.7756 7.6042 23.6774 7.61828 23.5193C7.63631 23.3168 7.62519 23.2114 7.61423 23.1076C7.60291 23.0004 7.59177 22.8949 7.61305 22.6858C7.62556 22.5629 7.63293 22.4757 7.63908 22.4031C7.65349 22.2327 7.66112 22.1425 7.71251 21.8576C7.74231 21.6924 7.75134 21.59 7.7593 21.4998C7.77092 21.3681 7.78027 21.2621 7.84862 21.0241C7.90924 20.8407 7.95975 20.7479 8.00692 20.6612C8.06158 20.5607 8.11175 20.4684 8.16796 20.2531C8.2215 20.0453 8.25177 19.9452 8.28257 19.8432L8.28257 19.8432C8.312 19.7459 8.34191 19.6469 8.39307 19.4509C8.39569 19.4405 8.41663 19.434 8.43757 19.4274C8.45851 19.4209 8.47945 19.4144 8.48206 19.404C8.5146 19.2048 8.5256 19.0996 8.53623 18.998C8.54783 18.887 8.55899 18.7803 8.59724 18.5601C8.63388 18.3491 8.61687 18.2384 8.59985 18.1277C8.58284 18.017 8.56583 17.9063 8.60247 17.6954C8.64018 17.4809 8.64602 17.3755 8.65206 17.2661C8.65777 17.1629 8.66366 17.0563 8.6967 16.8515C8.73053 16.6469 8.79669 16.5518 8.86239 16.4573C8.92888 16.3616 8.99491 16.2666 9.02651 16.0597C9.05792 15.8539 9.04483 15.7471 9.03175 15.6403C9.01866 15.5335 9.00557 15.4267 9.03698 15.221C9.08182 14.9005 9.09809 14.8328 9.14758 14.6266L9.14759 14.6266L9.14761 14.6266C9.16167 14.568 9.17842 14.4982 9.19927 14.4083C9.2935 14.002 9.2935 14.002 9.41914 13.6061L9.41914 13.6061C9.48017 13.4054 9.53178 13.3118 9.58421 13.2168C9.63522 13.1243 9.68699 13.0304 9.74895 12.8351C9.80855 12.6392 9.80658 12.53 9.80463 12.4217C9.80264 12.3112 9.80067 12.2016 9.86412 12.0017C9.8687 11.9857 9.87529 11.9727 9.88169 11.9601C9.88991 11.944 9.89782 11.9284 9.90076 11.9079C9.92432 11.7464 9.92301 11.6644 9.9217 11.5823V11.5823C9.9204 11.5003 9.91909 11.4182 9.94264 11.2567C9.9662 11.0952 10.0264 11.0223 10.0866 10.9494C10.114 10.9162 10.1414 10.883 10.1654 10.8415C10.1931 10.8685 10.2233 10.899 10.2566 10.9339C10.4046 11.089 10.438 11.2068 10.4711 11.3238C10.5047 11.4426 10.5381 11.5604 10.6911 11.7153C10.8389 11.8649 10.9547 11.8982 11.0715 11.9316C11.1864 11.9646 11.3022 11.9978 11.4502 12.1425C11.5994 12.2883 11.6583 12.3782 11.7172 12.468C11.7761 12.5579 11.835 12.6478 11.9842 12.7936C12.124 12.9327 12.2078 12.996 12.2885 13.0569C12.377 13.1237 12.4617 13.1877 12.6124 13.3458C12.7663 13.5071 12.8186 13.6059 12.8726 13.7082C12.9233 13.8042 12.9756 13.9031 13.1149 14.0595C13.2589 14.2209 13.3139 14.3173 13.3688 14.4137C13.4238 14.5101 13.4788 14.6064 13.6227 14.7679C13.7071 14.8625 13.7663 14.9299 13.8153 14.9856L13.8153 14.9856L13.8153 14.9857C13.9337 15.1203 13.9929 15.1877 14.2038 15.4087C14.3284 15.5414 14.4198 15.5981 14.5071 15.6424C14.4461 15.7445 14.3973 15.8027 14.3484 15.861C14.2862 15.9351 14.2238 16.0095 14.1357 16.1745C14.0514 16.3324 14.0399 16.4353 14.0289 16.5337C14.0167 16.6431 14.0051 16.7469 13.8949 16.9142C13.8111 17.0403 13.764 17.1203 13.7234 17.1894C13.66 17.2971 13.6124 17.378 13.4656 17.5653C13.3457 17.7183 13.2376 17.759 13.1307 17.7992C13.0229 17.8398 12.9164 17.8798 12.8008 18.0342C12.6825 18.192 12.6484 18.2867 12.6134 18.3837C12.5804 18.4757 12.5465 18.5698 12.4395 18.7218C12.3183 18.8942 12.2527 18.9636 12.1788 19.0418C12.1187 19.1055 12.0531 19.175 11.9474 19.3104C11.8475 19.4386 11.7946 19.5153 11.7477 19.5833C11.6841 19.6756 11.6314 19.752 11.4868 19.9199C11.3611 20.0658 11.2957 20.1361 11.2302 20.2064C11.1648 20.2768 11.0994 20.3471 10.9737 20.4929C10.9629 20.5064 10.9914 20.5479 11.0192 20.5883C11.045 20.626 11.0703 20.6627 11.0627 20.6753C10.9659 20.8249 10.9013 20.8931 10.8381 20.9597C10.7716 21.0299 10.7067 21.0983 10.6073 21.2587C10.4958 21.4386 10.4259 21.496 10.3408 21.5659C10.278 21.6174 10.2069 21.6758 10.1047 21.7953C9.99913 21.9209 9.95594 22.0054 9.9169 22.0819C9.8669 22.1798 9.82371 22.2643 9.66497 22.4047C9.52362 22.5298 9.44902 22.5871 9.37442 22.6444C9.29982 22.7017 9.22522 22.759 9.08388 22.884C9.06425 22.9011 9.01931 22.901 8.97387 22.9009C8.92237 22.9008 8.87022 22.9008 8.85353 22.9257C8.74098 23.0924 8.72266 23.2018 8.70433 23.3111C8.68601 23.4205 8.66769 23.5299 8.55514 23.6966C8.4457 23.8587 8.36843 23.9297 8.29325 23.9987C8.2138 24.0717 8.13668 24.1425 8.0264 24.3165C7.9085 24.4997 7.868 24.5885 7.82247 24.6883C7.78511 24.7703 7.74437 24.8596 7.65471 25.0146C7.5571 25.1833 7.51368 25.273 7.47128 25.3605C7.42727 25.4515 7.38434 25.5402 7.28302 25.7126ZM9.52222 8.60245C9.4936 8.60508 9.46282 8.60778 9.42947 8.61058C9.16248 8.63142 8.9112 8.76686 8.81697 9.0169C8.72316 9.26583 8.71236 9.62317 8.89821 9.82167C8.89148 9.89107 8.88172 9.9748 8.86422 10.0951C8.83535 10.2909 8.82885 10.3899 8.82229 10.4898V10.4898C8.81576 10.5892 8.80918 10.6895 8.78046 10.8869C8.75448 11.0506 8.74551 11.1493 8.73763 11.236C8.72646 11.359 8.71748 11.4578 8.66529 11.6839C8.61637 11.8948 8.535 11.9808 8.45047 12.0701C8.37219 12.1529 8.2912 12.2384 8.23078 12.4288C8.16796 12.6268 8.16011 12.7336 8.15226 12.8403C8.1444 12.9471 8.13655 13.0539 8.07373 13.2519C8.01091 13.4498 7.98997 13.5527 7.96903 13.6556C7.94809 13.7585 7.92715 13.8614 7.86433 14.0593C7.85938 14.0765 7.84742 14.0903 7.83563 14.1038C7.82246 14.119 7.8095 14.1338 7.80674 14.1531C7.77533 14.3614 7.74261 14.463 7.70989 14.5646C7.67718 14.6662 7.64446 14.7678 7.61305 14.9761C7.58164 15.1845 7.55022 15.2861 7.51881 15.3877C7.4874 15.4893 7.45599 15.5908 7.42458 15.7992C7.39428 16.0002 7.38712 16.1055 7.38019 16.2074C7.37276 16.3167 7.36558 16.4222 7.33035 16.6379C7.29799 16.8336 7.28693 16.9374 7.27636 17.0367C7.2647 17.1463 7.25362 17.2503 7.21518 17.4662C7.18019 17.6804 7.14797 17.7818 7.11496 17.8856C7.08376 17.9837 7.05186 18.0841 7.01625 18.284C6.98703 18.4607 6.97711 18.5625 6.96827 18.6532C6.9565 18.7739 6.94663 18.8752 6.89584 19.1071C6.8522 19.3089 6.8778 19.423 6.90287 19.5348C6.92893 19.651 6.95444 19.7647 6.90108 19.9718C6.84873 20.175 6.81993 20.2766 6.79114 20.3781C6.76235 20.4797 6.73356 20.5813 6.68121 20.7845C6.62886 20.9876 6.5608 21.0788 6.49274 21.1699C6.42469 21.2611 6.35663 21.3523 6.30428 21.5554C6.29949 21.5721 6.28813 21.5899 6.27672 21.6077C6.26317 21.6289 6.24954 21.6502 6.2467 21.67C6.22861 21.8758 6.24496 21.9825 6.26112 22.0879C6.2777 22.1961 6.29408 22.3029 6.27287 22.5139C6.25474 22.7202 6.27763 22.8269 6.30031 22.9326C6.32346 23.0405 6.34638 23.1473 6.32522 23.3578C6.30662 23.5693 6.23543 23.6668 6.16297 23.766C6.09268 23.8622 6.02119 23.96 5.99541 24.1653C5.9778 24.323 5.98438 24.4061 5.99072 24.4864C5.99758 24.5731 6.00418 24.6564 5.97971 24.8268C5.95316 24.9932 5.96431 25.0779 5.9756 25.1638C5.98658 25.2473 5.9977 25.3318 5.97447 25.4936C5.95092 25.6577 5.91951 25.7358 5.8881 25.814C5.85668 25.8921 5.82527 25.9703 5.80172 26.1344C5.77816 26.2958 5.76769 26.3779 5.75722 26.4599L5.75722 26.4599L5.75722 26.4599C5.74675 26.542 5.73628 26.624 5.71272 26.7855C5.68131 26.9887 5.81219 27.1502 5.9483 27.3064C6.08441 27.4575 6.22576 27.5409 6.42992 27.5409C6.42992 27.5409 6.43516 27.6815 6.41945 27.6659C6.63078 27.6633 6.73679 27.6426 6.8431 27.6218C6.95011 27.6009 7.05743 27.5799 7.27277 27.5773C7.4874 27.5747 7.59472 27.576 7.70204 27.5773C7.80936 27.5786 7.91668 27.5799 8.13132 27.5773C8.34236 27.5747 8.44837 27.5708 8.55454 27.567L8.55463 27.5669C8.66175 27.563 8.76907 27.5591 8.98463 27.5565C9.19469 27.5565 9.29939 27.5709 9.40376 27.5853C9.50748 27.5995 9.61087 27.6138 9.817 27.6138C10.0271 27.6138 10.1318 27.6243 10.2361 27.6347C10.3399 27.6451 10.4432 27.6555 10.6494 27.6555C10.8601 27.6555 10.9648 27.6555 11.0695 27.6548C11.1728 27.6541 11.2761 27.6528 11.4813 27.6503L11.4818 27.6502C11.6912 27.6476 11.7945 27.6047 11.8979 27.5617C12.0013 27.5187 12.1047 27.4757 12.3141 27.4731C12.5235 27.4705 12.6269 27.451 12.7303 27.4315L12.7303 27.4315L12.7303 27.4315C12.8337 27.4119 12.9371 27.3924 13.1465 27.3898C13.351 27.3872 13.4569 27.4445 13.5618 27.5012C13.669 27.5591 13.775 27.6165 13.9841 27.6086C14.186 27.6007 14.2842 27.538 14.3832 27.4747C14.4818 27.4117 14.5813 27.3481 14.7851 27.3377C14.9892 27.3273 15.0913 27.3442 15.1934 27.3611C15.2955 27.3781 15.3976 27.395 15.6017 27.3846C15.816 27.3763 15.9178 27.3959 16.0268 27.4169C16.1228 27.4355 16.2243 27.4551 16.4132 27.4575C16.609 27.46 16.7121 27.4242 16.8115 27.3896C16.9193 27.3521 17.0226 27.3162 17.2351 27.3325C17.4415 27.3456 17.5409 27.3814 17.6415 27.4177C17.7398 27.4531 17.8394 27.4889 18.0413 27.5044C18.2617 27.5184 18.3617 27.5295 18.4712 27.5416L18.4712 27.5416C18.5646 27.5519 18.6649 27.5629 18.8527 27.5773C18.8728 27.5798 18.8941 27.5991 18.9149 27.6179C18.9374 27.6383 18.9593 27.6582 18.9783 27.6555C19.1825 27.6372 19.2833 27.6216 19.3841 27.606C19.4848 27.5903 19.5856 27.5747 19.7898 27.5565C19.9939 27.5382 20.0921 27.494 20.1903 27.4497C20.2884 27.4054 20.3866 27.3611 20.5907 27.3429C20.7837 27.3279 20.8842 27.3046 20.9815 27.2821C21.0874 27.2576 21.1893 27.234 21.4022 27.2231C21.6111 27.2124 21.7145 27.2659 21.8204 27.3206C21.9214 27.3729 22.0247 27.4263 22.2241 27.4263C22.4282 27.4263 22.5303 27.3976 22.6324 27.3689C22.7345 27.3403 22.8366 27.3116 23.0408 27.3116C23.2449 27.3116 23.347 27.3221 23.4491 27.3325H23.4491C23.5512 27.3429 23.6533 27.3533 23.8574 27.3533C23.8739 27.3533 23.8918 27.3447 23.9104 27.3358C23.9273 27.3277 23.9447 27.3193 23.9621 27.3169C24.1579 27.2861 24.2612 27.2919 24.3636 27.2977C24.4693 27.3037 24.5741 27.3096 24.7788 27.2752C24.9785 27.2416 25.0742 27.1914 25.1689 27.1417C25.2653 27.0911 25.3607 27.041 25.564 27.0095C25.6523 26.9947 25.7214 26.9826 25.7799 26.9724C25.9885 26.936 26.0606 26.9234 26.3755 26.8949C26.5393 26.8803 26.6383 26.8673 26.7244 26.856L26.7245 26.856C26.8529 26.8392 26.9529 26.8261 27.1974 26.8168C27.4034 26.8116 27.5081 26.8568 27.6117 26.9015C27.7162 26.9467 27.8196 26.9913 28.0245 26.9835C28.2351 26.9754 28.337 26.9604 28.4424 26.9449C28.5414 26.9304 28.6434 26.9154 28.8412 26.9053C29.0205 26.8975 29.1068 26.8499 29.1938 26.802C29.2796 26.7549 29.366 26.7073 29.5427 26.697C29.7169 26.6868 29.8072 26.6965 29.8956 26.7061C29.9878 26.7161 30.0782 26.7259 30.2599 26.7126C30.4433 26.7018 30.5308 26.6856 30.6213 26.6688C30.7064 26.6529 30.7941 26.6367 30.9666 26.624C31.1227 26.6149 31.2104 26.6118 31.2896 26.6089C31.391 26.6053 31.4787 26.6022 31.6786 26.5876C31.8555 26.5772 31.9483 26.6247 32.0407 26.672C32.1342 26.7198 32.2271 26.7674 32.4063 26.7543C32.5843 26.7412 32.6719 26.7269 32.7596 26.7126C32.8473 26.6983 32.935 26.6839 33.113 26.6709C33.291 26.6579 33.3774 26.624 33.4637 26.5902C33.5501 26.5563 33.6365 26.5224 33.8145 26.5094C34.1495 26.4886 34.3066 26.2385 34.3485 25.9051C34.3773 25.689 34.4178 25.5835 34.4584 25.478C34.499 25.3725 34.5395 25.267 34.5683 25.0508C34.5971 24.8346 34.5919 24.724 34.5867 24.6133V24.6132C34.5814 24.5025 34.5762 24.3918 34.605 24.1757C34.6218 24.0494 34.6342 23.9599 34.6444 23.8859L34.6445 23.8853L34.6445 23.8853L34.6445 23.8851C34.6692 23.7062 34.6816 23.6166 34.7149 23.3109C34.7334 23.1246 34.7458 23.0216 34.757 22.9283L34.757 22.9281L34.757 22.9281C34.7712 22.8102 34.7835 22.7077 34.8039 22.4723C34.8222 22.2613 34.8654 22.1584 34.9086 22.0555C34.9518 21.9526 34.995 21.8497 35.0133 21.6388C35.0307 21.4383 35.034 21.3331 35.037 21.2326V21.2326C35.0405 21.1216 35.0437 21.0164 35.0657 20.7949C35.0864 20.5838 35.0725 20.4745 35.059 20.367C35.045 20.2569 35.0314 20.1488 35.0552 19.9353C35.0788 19.7244 35.101 19.6189 35.1233 19.5134C35.1455 19.4079 35.1678 19.3024 35.1913 19.0914C35.2149 18.8805 35.2162 18.7737 35.2175 18.6669V18.6669C35.2188 18.5601 35.2201 18.4533 35.2437 18.2423C35.2437 18.2345 35.2685 18.2267 35.2934 18.2189C35.3183 18.2111 35.3431 18.2033 35.3431 18.1955C35.351 17.9845 35.313 17.8777 35.2751 17.7709C35.2371 17.6641 35.1992 17.5573 35.207 17.3463C35.2149 17.1354 35.2319 17.0299 35.2489 16.9244C35.2659 16.8189 35.2829 16.7134 35.2908 16.5024C35.2997 16.2625 35.3154 16.1607 35.334 16.04C35.3482 15.9483 35.364 15.8458 35.3798 15.6638C35.3951 15.4869 35.3985 15.3832 35.4016 15.2914V15.2914V15.2914C35.4057 15.1642 35.4092 15.0597 35.4426 14.8147C35.4714 14.6037 35.5303 14.5047 35.5892 14.4057C35.6481 14.3067 35.707 14.2078 35.7358 13.9968C35.765 13.7822 35.7388 13.6714 35.7122 13.5587C35.6864 13.4499 35.6603 13.3394 35.6834 13.1321C35.7062 12.9306 35.729 12.8277 35.7512 12.7275C35.7749 12.6205 35.7979 12.5165 35.8195 12.2986C35.8373 12.0961 35.8354 11.9908 35.8334 11.8876V11.8876C35.8314 11.7784 35.8294 11.6716 35.8509 11.4547C35.8712 11.2503 35.8718 11.1437 35.8725 11.0408V11.0408C35.8731 10.9312 35.8737 10.8257 35.898 10.6108C35.9243 10.3992 35.9808 10.3002 36.0379 10.2003C36.0947 10.101 36.152 10.0007 36.1807 9.78772C36.2096 9.57368 36.1727 9.46035 36.136 9.34746C36.0994 9.23506 36.063 9.12309 36.0917 8.91257C36.1205 8.7016 36.1572 8.59871 36.1938 8.49583C36.2305 8.39295 36.2671 8.29006 36.2959 8.07909C36.3001 8.04984 36.3136 8.01892 36.3272 7.98766C36.3475 7.94098 36.3681 7.89356 36.3587 7.84988C36.3428 7.75482 36.3134 7.71196 36.2836 7.66838C36.2545 7.62599 36.225 7.58291 36.2069 7.49044C36.1441 7.13101 35.8457 6.87054 35.4792 6.9018C35.2646 6.92003 35.1547 6.90701 35.0447 6.89399C34.9348 6.88096 34.8249 6.86794 34.6102 6.88617C34.4895 6.89789 34.4031 6.90962 34.3318 6.92122C34.2682 6.91624 34.217 6.91047 34.1657 6.9047L34.1657 6.90469C34.0612 6.89293 33.9565 6.88113 33.7463 6.8759C33.5467 6.87094 33.4422 6.8494 33.3422 6.82879C33.2324 6.80615 33.1279 6.78462 32.9087 6.78734C32.6884 6.78998 32.5798 6.83948 32.4697 6.88968C32.3625 6.93851 32.2539 6.98801 32.0397 6.99571C31.8224 7.00353 31.7125 6.97618 31.6025 6.94883C31.4926 6.92148 31.3827 6.89413 31.1654 6.90195C30.9482 6.90976 30.8408 6.95534 30.7335 7.00092C30.6262 7.0465 30.5189 7.09208 30.3016 7.0999C30.291 7.10255 30.2776 7.05666 30.2643 7.01094C30.2514 6.96679 30.2386 6.92278 30.2283 6.92278C30.0178 6.94865 29.913 6.97195 29.8084 6.99524C29.7023 7.01884 29.5964 7.04242 29.3803 7.06864C29.1656 7.09469 29.0596 7.11422 28.9536 7.13376C28.8476 7.15329 28.7416 7.17283 28.5269 7.19887C28.3032 7.22636 28.196 7.22629 28.0817 7.22622C27.9793 7.22615 27.8712 7.22607 27.6684 7.24576C27.4408 7.26813 27.3354 7.26348 27.2201 7.2584C27.1518 7.25539 27.0801 7.25223 26.9774 7.25446C26.9343 7.25156 26.8861 7.25017 26.8309 7.25082C26.6953 7.25243 26.602 7.27236 26.525 7.29932C26.4739 7.31075 26.4305 7.32344 26.3868 7.3362C26.2835 7.36641 26.1788 7.39704 25.967 7.41245C25.8132 7.42365 25.7152 7.43753 25.6329 7.45096C25.5969 7.44836 25.5641 7.44542 25.5314 7.4425C25.4188 7.43241 25.3089 7.42257 25.0824 7.42793C24.8697 7.43303 24.7611 7.42065 24.6547 7.40852C24.5438 7.39587 24.4352 7.38349 24.2134 7.39147C23.9961 7.39928 23.8888 7.41361 23.7815 7.42793C23.6742 7.44226 23.5669 7.45658 23.3496 7.4644C23.1922 7.47006 23.0918 7.4641 23.0071 7.45469C22.9911 7.44937 22.9754 7.44397 22.9597 7.43857L22.9596 7.43855L22.9595 7.4385C22.8535 7.40204 22.7474 7.36557 22.5328 7.35515C22.5171 7.35515 22.5027 7.37208 22.4883 7.38901L22.4883 7.38903C22.4784 7.40065 22.4685 7.41228 22.4582 7.41842C22.4237 7.42014 22.393 7.42325 22.3652 7.42742C22.1966 7.43245 22.0993 7.40229 22.0015 7.37193C21.8911 7.33768 21.7799 7.30318 21.5643 7.31869C21.422 7.32892 21.328 7.35089 21.2507 7.37691C21.2195 7.37234 21.1849 7.37002 21.1457 7.37063C20.9808 7.37324 20.8983 7.41231 20.8159 7.45138C20.7334 7.49044 20.6509 7.52951 20.486 7.53212C20.3305 7.53454 20.2472 7.52461 20.1696 7.51536C20.0799 7.50468 19.9979 7.49491 19.8212 7.50607C19.6338 7.5185 19.5347 7.51195 19.4396 7.50567C19.3354 7.49878 19.236 7.49222 19.0307 7.51128C18.8264 7.52754 18.7299 7.5438 18.6289 7.5608C18.5894 7.56745 18.5492 7.57422 18.5016 7.58114C18.4034 7.57339 18.2953 7.56768 18.104 7.57915C17.8914 7.59462 17.7867 7.65095 17.6824 7.70706L17.6627 7.71763C17.6112 7.72581 17.5508 7.73353 17.4759 7.74049C17.2757 7.75664 17.1803 7.77279 17.0808 7.78967C17.039 7.79674 16.9965 7.80393 16.9453 7.81131C16.8682 7.80599 16.8067 7.79085 16.7454 7.77577C16.6307 7.74756 16.5167 7.71953 16.3031 7.75626C16.0911 7.79273 15.9903 7.84092 15.8895 7.8891C15.8128 7.92579 15.7361 7.96248 15.6102 7.994L15.5363 8.00095C15.4395 8.01007 15.3426 8.01918 15.1463 8.03742C14.9526 8.05565 14.8518 8.03221 14.751 8.00877C14.6503 7.98532 14.5495 7.96188 14.3558 7.98011C14.1577 7.99588 14.0635 8.03818 13.9684 8.0809C13.8751 8.12285 13.7808 8.16521 13.5862 8.18328C13.3895 8.20155 13.2887 8.18057 13.1883 8.15969C13.0885 8.1389 12.989 8.1182 12.7957 8.13639C12.586 8.15331 12.4898 8.16565 12.3843 8.1792C12.2948 8.19068 12.1986 8.20302 12.021 8.21974C12.007 8.21974 11.9959 8.22869 11.9847 8.23781C11.975 8.24573 11.9651 8.25378 11.9529 8.2562C11.7461 8.29788 11.6362 8.28225 11.5262 8.26662C11.4163 8.251 11.3064 8.23537 11.0996 8.27704C10.898 8.31818 10.7973 8.34536 10.6971 8.37236L10.6971 8.37236C10.5944 8.40006 10.4924 8.42757 10.2829 8.46978C10.0761 8.51146 9.97275 8.52709 9.86935 8.54271C9.77767 8.55657 9.68599 8.57043 9.52222 8.60245ZM11.1354 9.70572C11.1203 9.73544 11.1132 9.78162 11.1152 9.85038C11.125 10.1995 11.2375 10.2584 11.4167 10.3523C11.5236 10.4083 11.6542 10.4767 11.8009 10.6266C11.9384 10.7682 12.0068 10.848 12.0715 10.9235C12.1447 11.0089 12.2131 11.0888 12.3716 11.2465C12.6699 11.5434 12.67 11.5434 12.9735 11.8402L12.9736 11.8403C13.1311 11.997 13.1923 12.0841 13.2574 12.1765L13.2574 12.1765C13.3156 12.2593 13.3768 12.3463 13.5128 12.4915C13.6505 12.6357 13.7325 12.7068 13.8091 12.7732L13.8092 12.7732C13.8986 12.8506 13.9808 12.9218 14.1358 13.0957C14.2797 13.2572 14.3413 13.3484 14.4028 13.4396C14.4643 13.5307 14.5258 13.6219 14.6698 13.7834C14.8157 13.9471 14.9213 13.997 15.0289 14.0479C15.1335 14.0973 15.2398 14.1476 15.387 14.3043C15.5238 14.448 15.5784 14.5368 15.6316 14.6232C15.6884 14.7154 15.7435 14.8049 15.8948 14.9555C16.0413 15.1013 16.1251 15.1625 16.2089 15.2237L16.2089 15.2237C16.2926 15.2849 16.3764 15.3462 16.523 15.492C16.6601 15.6285 16.7193 15.7136 16.7752 15.7939C16.8387 15.8852 16.8978 15.9702 17.0622 16.1171C17.1608 16.2036 17.2275 16.2636 17.2828 16.3134L17.283 16.3136L17.2831 16.3136L17.2831 16.3137C17.4009 16.4197 17.468 16.4801 17.6852 16.6537C17.8613 16.7922 17.9265 16.8709 17.9986 16.9581C18.0593 17.0315 18.125 17.1109 18.2662 17.2371C18.4529 17.3816 18.5473 17.4326 18.6558 17.4912C18.739 17.5362 18.8305 17.5856 18.9782 17.6851C19.3118 17.9096 19.3374 17.9238 19.6494 18.0961L19.7163 18.1331C19.9048 18.2373 20.0082 18.2737 20.1116 18.3102C20.215 18.3467 20.3184 18.3831 20.5068 18.4873C20.6594 18.5717 20.7408 18.6646 20.8121 18.7459C20.9169 18.8656 21 18.9604 21.2555 18.9666C21.4707 18.9724 21.5282 18.8577 21.5962 18.722C21.649 18.6166 21.7082 18.4986 21.8523 18.4144C22.0172 18.318 22.1192 18.3024 22.2213 18.2868C22.3234 18.2711 22.4255 18.2555 22.5904 18.1591C22.734 18.0752 22.827 18.0427 22.9108 18.0133C23.0196 17.9752 23.1129 17.9425 23.2814 17.8101C23.4724 17.6587 23.5358 17.5699 23.6103 17.4655C23.6665 17.3868 23.729 17.2993 23.8573 17.1694C24.0058 17.019 24.061 16.9241 24.1163 16.8288C24.1722 16.7327 24.2283 16.6361 24.3808 16.4818C24.5243 16.3365 24.5951 16.2563 24.6638 16.1785L24.6638 16.1785L24.6638 16.1785C24.7379 16.0945 24.8095 16.0135 24.9671 15.8567C24.9748 15.849 25.0002 15.8564 25.0265 15.864C25.0538 15.872 25.0821 15.8802 25.0928 15.8723C25.2648 15.7305 25.3595 15.6753 25.4571 15.6184C25.5495 15.5645 25.6444 15.5092 25.81 15.3774C25.9775 15.2394 26.0573 15.1651 26.1371 15.0909L26.1371 15.0909L26.1372 15.0909C26.217 15.0167 26.2968 14.9424 26.4643 14.8044C26.6434 14.6568 26.7059 14.5658 26.7731 14.4677C26.8317 14.3822 26.894 14.2914 27.0402 14.1532C27.2268 13.9737 27.2896 13.8935 27.3713 13.7892L27.3713 13.7891L27.3714 13.7891C27.4272 13.7178 27.4919 13.6352 27.6108 13.5021C27.7561 13.3394 27.8461 13.2727 27.935 13.2069C28.0255 13.1399 28.1148 13.0737 28.26 12.9082C28.4054 12.7454 28.4967 12.68 28.587 12.6154C28.6787 12.5498 28.7693 12.4849 28.9143 12.3196C28.9313 12.3027 28.9392 12.2793 28.9471 12.2563C28.9562 12.2295 28.9651 12.2034 28.9876 12.1893C29.1656 12.0617 29.2677 12.0161 29.3698 11.9705C29.4719 11.925 29.574 11.8794 29.752 11.7518C29.9299 11.6241 29.9849 11.5147 30.0399 11.4053C30.0948 11.296 30.1498 11.1866 30.3278 11.0589C30.5001 10.9354 30.6258 10.9192 30.7476 10.9036C30.8775 10.8869 31.003 10.8707 31.1759 10.7255C31.3564 10.574 31.4214 10.4829 31.4921 10.3839C31.5526 10.2991 31.6173 10.2085 31.7622 10.0692C31.9199 9.91486 31.9707 9.81045 32.0213 9.7065C32.0715 9.60339 32.1215 9.50074 32.2752 9.3503C32.4419 9.18722 32.5349 9.1268 32.6339 9.06244C32.7215 9.0055 32.8139 8.94547 32.9663 8.80853C33.075 8.70866 33.2013 8.67112 33.3111 8.63848C33.4095 8.6092 33.4947 8.58387 33.5421 8.52105C33.5181 8.51972 33.4949 8.51818 33.4718 8.51664C33.3548 8.50883 33.2384 8.50106 33.0083 8.52188C32.9978 8.52188 32.9874 8.49974 32.9769 8.4776C32.9664 8.45546 32.9559 8.43332 32.9455 8.43332C32.7308 8.43071 32.6235 8.4802 32.5162 8.52969C32.4089 8.57918 32.3016 8.62867 32.0869 8.62606C31.874 8.62348 31.7667 8.58115 31.6602 8.53915C31.552 8.49648 31.4447 8.45416 31.2284 8.45416C30.9623 8.45093 30.8591 8.4577 30.7169 8.46705C30.6297 8.47278 30.5278 8.47947 30.3646 8.48541C30.1338 8.49381 30.0286 8.51727 29.914 8.54283C29.8154 8.56482 29.7098 8.58836 29.5113 8.60522C29.2966 8.62346 29.188 8.61825 29.0794 8.61304C29.0296 8.61065 28.9798 8.60827 28.9199 8.60813C28.8538 8.63324 28.7733 8.65451 28.6631 8.66788C28.5091 8.68656 28.4097 8.69318 28.3258 8.69592C28.2919 8.71029 28.2609 8.7255 28.2302 8.74061C28.1232 8.79322 28.0187 8.84463 27.7994 8.85527C27.6607 8.86184 27.5785 8.83156 27.5053 8.79427L27.4773 8.80671C27.3966 8.84293 27.3168 8.87872 27.1501 8.89188C26.9852 8.9049 26.9002 8.86453 26.8151 8.82416C26.73 8.78379 26.6449 8.74342 26.48 8.75644C26.3151 8.76946 26.2314 8.76426 26.1476 8.75905C26.0639 8.75384 25.9801 8.74863 25.8152 8.76165C25.6513 8.77459 25.5727 8.82998 25.4947 8.88499C25.4157 8.94069 25.3372 8.996 25.1713 9.00649C25.1588 9.00649 25.1439 8.99225 25.1284 8.97736C25.1113 8.96106 25.0935 8.94397 25.077 8.94397C24.8624 8.93356 24.7551 8.92704 24.6478 8.92053C24.5405 8.91402 24.4331 8.90751 24.2185 8.89709C24.0039 8.88667 23.8965 8.86974 23.7892 8.85281C23.6819 8.83588 23.5746 8.81895 23.3599 8.80853C23.1326 8.7975 23.0256 8.823 22.9116 8.8502C22.8102 8.87435 22.7033 8.89985 22.5014 8.9023C22.2982 8.90477 22.1912 8.87339 22.0893 8.84352C22.0509 8.83225 22.0132 8.82119 21.9713 8.81225C21.8925 8.80759 21.7979 8.80505 21.6587 8.80839C21.4388 8.81359 21.3302 8.84094 21.2216 8.86829C21.1162 8.89482 21.0108 8.92135 20.8039 8.92767L20.7948 8.92835C20.7199 8.9338 20.6579 8.93465 20.6043 8.93252C20.3425 8.93896 20.283 8.94178 19.9402 8.95803L19.9102 8.95945C19.7633 8.96736 19.6713 8.95427 19.5926 8.93698C19.5637 8.94712 19.5368 8.95768 19.5099 8.96822C19.4042 9.00964 19.2995 9.05064 19.0829 9.06379C18.8683 9.07681 18.7596 9.07551 18.651 9.07421C18.5424 9.0729 18.4338 9.0716 18.2191 9.08462C17.8592 9.10646 17.801 9.11365 17.5386 9.14612L17.3606 9.16797C17.1337 9.19275 17.0326 9.23645 16.9251 9.28291C16.8291 9.32436 16.7281 9.368 16.5282 9.40239C16.3162 9.43885 16.2076 9.44536 16.0989 9.45188C15.9903 9.45839 15.8817 9.4649 15.6697 9.50136C15.4528 9.53865 15.3442 9.5419 15.233 9.54521C15.1268 9.54838 15.0183 9.55162 14.8111 9.58471C14.8017 9.58704 14.7913 9.59459 14.7808 9.60222C14.7678 9.61164 14.7546 9.62118 14.743 9.62118C14.5546 9.6342 14.4617 9.65243 14.3687 9.67066C14.2758 9.6889 14.1829 9.70713 13.9944 9.72015C13.806 9.73318 13.7091 9.69411 13.6123 9.65504C13.5154 9.61597 13.4186 9.5769 13.2301 9.58992C13.0417 9.60294 12.9514 9.65243 12.861 9.70192C12.7707 9.75141 12.6804 9.8009 12.492 9.81392C12.303 9.82698 12.2061 9.80337 12.1097 9.77987C12.0138 9.75649 11.9182 9.73321 11.7329 9.7462C11.5966 9.75575 11.4757 9.72186 11.3779 9.69361C11.3043 9.70273 11.2504 9.70355 11.1964 9.70438C11.1764 9.70468 11.1564 9.70499 11.1354 9.70572Z" fill="#023866"/>
</svg>
